<svg version="1.2" baseProfile="tiny-ps" xmlns="http://www.w3.org/2000/svg" viewBox="0 0 1500 1200" width="1500" height="1200">
	<title>Set_of_programmers_02_02-ai</title>
	<style>
		tspan { white-space:pre }
		.s0 { fill: transparent } 
		.s1 { fill: #ffffff } 
		.s2 { fill: #eee4d9 } 
		.s3 { fill: #070707 } 
		.s4 { fill: #bec0c2 } 
		.s5 { fill: #fed35c } 
		.s6 { fill: #0d645c } 
		.s7 { fill: #2dd1a7 } 
		.s8 { fill: #fd548a } 
		.s9 { fill: #3bcbe5 } 
		.s10 { opacity: .8;fill: #25f2c8 } 
		.s11 { opacity: .8;fill: #070707 } 
		.s12 { fill: #ffd984 } 
		.s13 { fill: #ffa887 } 
		.s14 { fill: #fca685 } 
		.s15 { fill: #3b314a } 
		.s16 { fill: #ffe3d6 } 
		.s17 { fill: #fffff8 } 
		.s18 { fill: #efe5da } 
		.s19 { fill: #30323e } 
		.s20 { fill: #353b4a } 
		.s21 { fill: #383b4f } 
		.s22 { fill: #424459 } 
		.s23 { fill: #f39f84 } 
		.s24 { fill: #f39f84 } 
		.s25 { fill: #463c3a } 
	</style>
	<g id="Layer 1">
		<g id="&lt;Group&gt;">
			<g id="&lt;Group&gt;">
				<g id="&lt;Group&gt;">
					<path id="&lt;Compound Path&gt;" fill-rule="evenodd" class="s0" d="m450.04 1063.18c-6.87 0-13.47-0.17-19.83-0.51c-44.34-2.38-77.18-13.01-103.36-33.46c-50.99-39.81-72.67-114.16-105.5-226.7c-7.62-26.14-15.51-53.17-24.59-82.71c-36.02-117.12-36-202.19 0.06-284.42c41.21-93.99 133.23-188 289.57-295.87c216.36-149.27 355.87-54.32 467.97 21.97c19.53 13.29 37.97 25.84 55.96 36.54c29.89 17.77 61.7 33.26 92.46 48.24c95.02 46.27 184.78 89.98 200.46 191.34c10.37 67-2.2 113.02-19.6 176.73c-17.69 64.75-39.69 145.34-49.57 284.51c-10.59 149.27-129.41 142.75-293.86 133.74c-99.91-5.48-213.16-11.69-334.85 12c-64.6 12.58-114.68 18.6-155.33 18.6zm255.13-997.18c-62.59 0-133.62 20.95-215.88 77.7c-155.53 107.31-246.98 200.64-287.8 293.72c-35.53 81.02-35.49 165.02 0.14 280.88c9.1 29.58 16.99 56.63 24.61 82.78c32.55 111.59 54.05 185.31 103.74 224.11c49.37 38.55 128.87 42.72 274.41 14.38c122.31-23.82 235.89-17.59 336.1-12.09c81.85 4.49 152.55 8.36 202.9-7.13c54.4-16.74 80.8-54.33 85.59-121.88c9.91-139.67 31.99-220.52 49.73-285.49c17.23-63.1 29.68-108.68 19.48-174.6c-15.28-98.73-103.87-141.87-197.66-187.54c-30.85-15.02-62.76-30.56-92.83-48.44c-18.12-10.77-36.63-23.37-56.22-36.71c-68.11-46.36-146.48-99.69-246.33-99.69z" />
				</g>
				<g id="&lt;Group&gt;">
					<path id="&lt;Path&gt;" class="s0" d="m1034.8 225.25c121.77 72.4 271.16 105.06 291.7 237.78c20.54 132.73-49.38 181.42-69.19 460.66c-16.56 233.54-298.29 79.49-626.65 143.42c-328.03 63.87-317.3-35.6-405.69-323.03c-63.28-205.76-33.04-355.5 288.65-577.44c252.34-174.1 399.41-13.79 521.18 58.61z" />
				</g>
			</g>
			<g id="&lt;Group&gt;">
				<g id="&lt;Group&gt;">
					<g id="&lt;Group&gt;">
						<path id="&lt;Path&gt;" class="s1" d="m824.38 572.06c8.02-104.57 5.94-171.12-1.46-273.43c171.08 13.87 269 10.73 436.24 0c-12.55 105.99-10.09 170.85-1.55 273.35c0.8 9.65-7.04 17.83-16.72 17.41c-386.66-16.93-419.23 18.05-416.52-17.33z" />
						<path id="&lt;Compound Path&gt;" fill-rule="evenodd" class="s2" d="m1241.6 591.11c-0.26 0-0.52-0.01-0.78-0.02c-188.83-8.27-293.81-4.13-350.2-1.9c-42.79 1.69-58.8 2.32-64.99-4.11c-3.22-3.34-3.31-8.29-2.94-13.15c8.01-104.44 5.91-171.3-1.46-273.18l-0.14-1.98l1.98 0.16c173.57 14.07 270.52 10.61 436 0l2.04-0.13l-0.24 2.03c-12.2 103.08-10.34 167.53-1.54 273.01c0.42 5.09-1.36 10.12-4.9 13.81c-3.36 3.49-7.99 5.46-12.8 5.46zm-207.96-8.34c54.27 0 122.3 1.21 207.33 4.93c4.11 0.19 8.12-1.42 10.98-4.4c2.86-2.98 4.31-7.05 3.97-11.17c-8.76-105.02-10.66-169.47 1.31-271.67c-163.78 10.49-260.63 13.88-432.48 0.03c7.27 100.94 9.29 167.73 1.32 271.7c-0.43 5.63 0.13 8.59 2 10.53c5.14 5.33 21.9 4.67 62.41 3.07c31.05-1.23 76.81-3.03 143.15-3.03z" />
					</g>
					<g id="&lt;Group&gt;">
						<path id="&lt;Path&gt;" class="s3" d="m1242.38 282.34c8.83-0.39 16.78 6.5 16.78 16.3c-169.79 10.29-264.38 14.31-436.24 0c0-33.42 13.17 1.55 419.46-16.3z" />
						<path id="&lt;Compound Path&gt;" fill-rule="evenodd" class="s3" d="m1026.65 309.67c-60.77 0-123.94-2.68-203.88-9.34l-1.56-0.13v-1.56c0-5.23 0.25-9.8 3.32-12.75c5.35-5.12 17.48-4.6 53.51-3.04c55.3 2.39 158.25 6.84 364.26-2.21c4.82-0.22 9.59 1.58 13.07 4.91c3.54 3.38 5.48 8.03 5.48 13.08v1.6l-1.6 0.1c-90.47 5.48-159.81 9.34-232.61 9.34zm-202.02-12.6c173.88 14.41 268.45 9.92 432.75-0.03c-0.35-3.49-1.87-6.65-4.35-9.03c-2.82-2.7-6.67-4.14-10.57-3.97c-206.16 9.06-309.2 4.6-364.56 2.21c-33.03-1.43-46.71-2.02-51.01 2.1c-1.73 1.65-2.19 4.3-2.26 8.73z" />
					</g>
					<g id="&lt;Group&gt;">
						<path id="&lt;Path&gt;" class="s4" d="m1233.12 290.35c-0.15-2.2 2.08-1.85 8.13-2.26c2.17-0.15 1.86 2.22 2.15 6.47c0.15 2.2-2.08 1.85-8.13 2.26c-2.17 0.15-1.86-2.22-2.15-6.47z" />
						<g id="&lt;Group&gt;">
							<g id="&lt;Group&gt;">
								<path id="&lt;Path&gt;" class="s1" d="m1235.52 295.92c-0.22 0-0.45-0.09-0.61-0.26c-0.33-0.34-0.31-0.88 0.03-1.2l5.47-5.23c0.34-0.32 0.88-0.31 1.2 0.03c0.33 0.34 0.31 0.88-0.03 1.2l-5.47 5.23c-0.16 0.16-0.38 0.24-0.59 0.24z" />
							</g>
							<g id="&lt;Group&gt;">
								<path id="&lt;Path&gt;" class="s1" d="m1241.32 295.52c-0.17 0-0.35-0.05-0.5-0.16l-6.13-4.44c-0.38-0.27-0.47-0.81-0.19-1.19c0.28-0.38 0.81-0.46 1.19-0.19l6.13 4.44c0.38 0.27 0.47 0.81 0.19 1.19c-0.17 0.23-0.43 0.35-0.69 0.35z" />
							</g>
						</g>
					</g>
				</g>
				<g id="&lt;Group&gt;" style="opacity: .7">
					<g id="&lt;Group&gt;" style="opacity: .8">
						<path id="&lt;Path&gt;" class="s5" d="m936.75 350c-69.96 0-72.51 1.97-72.51-5.28c0-5.46-1.07-12.35 5.28-12.35c69.96 0 72.51-1.97 72.51 5.28c0 5.46 1.07 12.35-5.28 12.35z" />
						<path id="&lt;Path&gt;" class="s5" d="m1108.94 350c-141.28 0-140.8 2.75-140.8-7.28c0-4.98 0.76-10.34 7.28-10.34h133.52c9.82 0 10.06 17.62 0 17.62z" />
						<path id="&lt;Path&gt;" class="s5" d="m1212.56 350c-69.96 0-72.51 1.97-72.51-5.28c0-5.46-1.07-12.35 5.28-12.35c69.96 0 72.51-1.97 72.51 5.28c0 5.46 1.07 12.35-5.28 12.35z" />
					</g>
					<g id="&lt;Group&gt;" style="opacity: .8">
						<path id="&lt;Path&gt;" class="s5" d="m1108.94 374.95h-133.52c-9.82 0-10.06-17.62 0-17.62h133.52c9.82 0 10.06 17.62 0 17.62z" />
					</g>
					<g id="&lt;Group&gt;" style="opacity: .8">
						<path id="&lt;Path&gt;" class="s5" d="m936.75 399.89c-69.96 0-72.51 1.97-72.51-5.28c0-5.46-1.07-12.35 5.28-12.35c69.96 0 72.51-1.97 72.51 5.28v7.07c0 2.91-2.36 5.28-5.28 5.28z" />
						<path id="&lt;Path&gt;" class="s5" d="m1108.94 399.89h-133.52c-9.82 0-10.06-17.62 0-17.62c141.28 0 140.79-2.75 140.79 7.28c0 4.98-0.76 10.34-7.28 10.34z" />
						<path id="&lt;Path&gt;" class="s5" d="m1212.56 399.89c-69.96 0-72.51 1.97-72.51-5.28c0-5.46-1.07-12.35 5.28-12.35c69.96 0 72.51-1.97 72.51 5.28c0 5.46 1.07 12.35-5.28 12.35z" />
					</g>
					<g id="&lt;Group&gt;" style="opacity: .8">
						<path id="&lt;Path&gt;" class="s5" d="m936.75 424.83c-69.96 0-72.51 1.97-72.51-5.28c0-5.46-1.07-12.35 5.28-12.35h67.24c2.91 0 5.28 2.36 5.28 5.28v7.07c0 2.91-2.36 5.28-5.28 5.28z" />
						<path id="&lt;Path&gt;" class="s5" d="m1212.56 424.83c-69.96 0-72.51 1.97-72.51-5.28c0-5.46-1.07-12.35 5.28-12.35c69.96 0 72.51-1.97 72.51 5.28c0 5.46 1.07 12.35-5.28 12.35z" />
					</g>
					<g id="&lt;Group&gt;" style="opacity: .8">
						<path id="&lt;Path&gt;" class="s5" d="m936.75 449.78h-67.24c-2.91 0-5.28-2.36-5.28-5.28v-7.07c0-2.91 2.36-5.28 5.28-5.28h67.24c2.91 0 5.28 2.36 5.28 5.28v7.07c0 2.91-2.36 5.28-5.28 5.28z" />
						<path id="&lt;Path&gt;" class="s5" d="m1108.94 449.78h-133.52c-9.82 0-10.06-17.62 0-17.62h133.52c8.97 0 7.28 12.04 7.28 10.34c0 4.02-3.26 7.28-7.28 7.28z" />
						<path id="&lt;Path&gt;" class="s5" d="m1212.56 449.78c-69.96 0-72.51 1.97-72.51-5.28c0-5.46-1.07-12.35 5.28-12.35c69.96 0 72.51-1.97 72.51 5.28c0 5.46 1.07 12.35-5.28 12.35z" />
					</g>
					<g id="&lt;Group&gt;" style="opacity: .8">
						<path id="&lt;Path&gt;" class="s5" d="m936.75 474.72h-67.24c-2.91 0-5.28-2.36-5.28-5.28v-7.07c0-2.91 2.36-5.28 5.28-5.28c69.96 0 72.51-1.97 72.51 5.28v7.07c0 2.91-2.36 5.28-5.28 5.28z" />
						<path id="&lt;Path&gt;" class="s5" d="m1108.94 474.72h-133.52c-9.82 0-10.06-17.62 0-17.62h133.52c8.97 0 7.28 12.04 7.28 10.34c0 4.02-3.26 7.28-7.28 7.28z" />
					</g>
					<g id="&lt;Group&gt;" style="opacity: .8">
						<path id="&lt;Path&gt;" class="s5" d="m936.75 499.67h-67.24c-2.91 0-5.28-2.36-5.28-5.28v-7.07c0-2.91 2.36-5.28 5.28-5.28h67.24c2.91 0 5.28 2.36 5.28 5.28v7.07c0 2.91-2.36 5.28-5.28 5.28z" />
						<path id="&lt;Path&gt;" class="s5" d="m1212.56 499.67h-67.24c-2.91 0-5.28-2.36-5.28-5.28v-7.07c0-2.91 2.36-5.28 5.28-5.28h67.24c2.91 0 5.28 2.36 5.28 5.28v7.07c0 2.91-2.36 5.28-5.28 5.28z" />
					</g>
					<g id="&lt;Group&gt;" style="opacity: .8">
						<path id="&lt;Path&gt;" class="s5" d="m936.75 524.61h-67.24c-2.91 0-5.28-2.36-5.28-5.28v-7.07c0-2.91 2.36-5.28 5.28-5.28h67.24c2.91 0 5.28 2.36 5.28 5.28v7.07c0 2.91-2.36 5.28-5.28 5.28z" />
						<path id="&lt;Path&gt;" class="s5" d="m1108.94 524.61h-133.52c-9.82 0-10.06-17.62 0-17.62h133.52c8.97 0 7.28 12.04 7.28 10.34c0 4.02-3.26 7.28-7.28 7.28z" />
					</g>
					<g id="&lt;Group&gt;" style="opacity: .8">
						<path id="&lt;Path&gt;" class="s5" d="m936.75 549.55h-67.24c-2.91 0-5.28-2.36-5.28-5.28v-7.07c0-2.91 2.36-5.28 5.28-5.28h67.24c2.91 0 5.28 2.36 5.28 5.28v7.07c0 2.91-2.36 5.28-5.28 5.28z" />
						<path id="&lt;Path&gt;" class="s5" d="m1108.94 549.55h-133.52c-9.82 0-10.06-17.62 0-17.62c141.28 0 140.79-2.75 140.79 7.28v3.07c0 4.02-3.26 7.28-7.28 7.28z" />
						<path id="&lt;Path&gt;" class="s5" d="m1212.56 549.55h-67.24c-2.91 0-5.28-2.36-5.28-5.28v-7.07c0-2.91 2.36-5.28 5.28-5.28h67.24c2.91 0 5.28 2.36 5.28 5.28v7.07c0 2.91-2.36 5.28-5.28 5.28z" />
					</g>
				</g>
			</g>
			<g id="&lt;Group&gt;">
				<g id="&lt;Group&gt;">
					<path id="&lt;Path&gt;" class="s6" d="m1114.87 541.96c9.63-95.55 82.76-198.85 87.33-126.15c4.56 72.7-35.85 196.66-83.53 233.7c-8.95-8-10.21-43.86-3.79-107.56z" />
					<path id="&lt;Path&gt;" class="s7" d="m1086.87 793.26c5.08-28.63 35.42-102.63 88.5-115.42c63.4-15.28 28.63 38.82-6.92 70.31c-23.7 20.99-50.89 36.03-81.58 45.11z" />
					<path id="&lt;Path&gt;" class="s7" d="m1172.07 567c45.01-56.49 119.36-69.3 95.09-14.27c-24.28 55.02-93.05 94.49-138.84 104.78c-0.84-22.68 13.75-52.85 43.76-90.51z" />
					<path id="&lt;Path&gt;" class="s6" d="m1057.03 647.24c-10.24-50.49 13.35-99.02 35.23-50.39c28.63 63.64-4.4 127.09-12.14 144.65c-8.57-29.18-16.26-60.6-23.09-94.26z" />
					<g id="&lt;Group&gt;">
						<path id="&lt;Path&gt;" class="s7" d="m1062.3 813.96c26.48-81.62 30.48-147.11 12.01-196.47c-0.63-1.66 1.89-2.57 2.49-0.93c24.35 65.04-1.63 161.24-10.09 188.96c35.37-57.28 100.27-362.29 94-330.1c-34.32 175.27-85.47 346.49-98.41 338.54z" />
					</g>
					<g id="&lt;Group&gt;">
						<path id="&lt;Path&gt;" class="s6" d="m1068.3 819.52c-3.96-2.51 61.93-87.93 91.85-104.91c1.52-0.87 2.85 1.44 1.32 2.32c-21.05 11.94-52.1 46.14-93.17 102.59z" />
					</g>
					<g id="&lt;Group&gt;">
						<path id="&lt;Path&gt;" class="s6" d="m1108.91 687.79c-5.01-2.65 68.36-104.52 128.63-135.14c1.58-0.8 2.76 1.59 1.2 2.38c-51.27 26.05-113.78 105.48-128.03 132.21c-0.36 0.67-1.19 0.89-1.8 0.55z" />
					</g>
				</g>
				<g id="&lt;Group&gt;">
					<path id="&lt;Path&gt;" class="s6" d="m1137.18 629.61c7.94-7.58 29-49.18 32.59-60.18c0.23-0.7 0.98-1.08 1.68-0.85c3.96 1.42-24.08 54.98-32.43 62.96c-1.27 1.22-3.11-0.72-1.84-1.92z" />
				</g>
			</g>
			<g id="&lt;Group&gt;">
				<g id="&lt;Group&gt;">
					<path id="&lt;Path&gt;" class="s6" d="m450.25 496.31c-47.69-37.04-88.1-161-83.53-233.7c4.56-72.7 77.7 30.6 87.33 126.15c6.42 63.7 5.15 99.55-3.79 107.56z" />
					<path id="&lt;Path&gt;" class="s7" d="m400.47 594.94c-35.55-31.49-70.32-85.58-6.92-70.31c53.08 12.79 83.42 86.79 88.5 115.42c-30.69-9.08-57.88-24.12-81.58-45.11z" />
					<path id="&lt;Path&gt;" class="s7" d="m440.6 504.3c-45.79-10.29-114.56-49.75-138.84-104.78c-24.28-55.02 50.08-42.21 95.09 14.27c30.01 37.66 44.59 67.83 43.76 90.51z" />
					<path id="&lt;Path&gt;" class="s6" d="m488.79 588.29c-7.73-17.55-40.77-81-12.14-144.65c21.88-48.63 45.47-0.1 35.23 50.39c-6.83 33.66-14.53 65.08-23.09 94.26z" />
					<g id="&lt;Group&gt;">
						<path id="&lt;Path&gt;" class="s7" d="m504.96 660.52c-28.87-30.86-78.53-245.24-96.75-338.31c-6.27-32.19 58.63 272.82 94 330.1c-8.46-27.73-34.44-123.93-10.09-188.97c0.6-1.63 3.12-0.72 2.49 0.93c-18.47 49.35-14.47 114.84 12.01 196.47c-0.51 0.31-1.22 0.24-1.66-0.23z" />
					</g>
					<g id="&lt;Group&gt;">
						<path id="&lt;Path&gt;" class="s6" d="m498.78 665.9c-19.53-30.96-68.22-89.06-91.33-102.17c-1.53-0.88-0.21-3.18 1.32-2.32c29.92 16.98 95.81 102.4 91.85 104.91c-0.59 0.38-1.43 0.22-1.84-0.42z" />
					</g>
					<g id="&lt;Group&gt;">
						<path id="&lt;Path&gt;" class="s6" d="m458.21 534.03c-14.25-26.73-76.77-106.17-128.03-132.21c-0.66-0.33-0.92-1.13-0.59-1.79c4.4-8.7 97.51 69.98 130.97 132.75c0.83 1.55-1.52 2.81-2.35 1.25z" />
					</g>
				</g>
				<g id="&lt;Group&gt;">
					<path id="&lt;Path&gt;" class="s6" d="m429.9 478.33c-8.36-7.99-29.54-49.82-33.28-61.28c-0.54-1.65 1.98-2.51 2.53-0.82c3.59 11 24.65 52.6 32.59 60.18c1.27 1.21-0.56 3.14-1.84 1.92z" />
				</g>
			</g>
			<g id="&lt;Group&gt;">
				<g id="&lt;Group&gt;">
					<g id="&lt;Group&gt;">
						<path id="&lt;Path&gt;" class="s1" d="m861.58 495.69c-167.1 43.95-268.34 43.45-429.73 0.05c-15.22-4.09-11.01 6.97-11.01-309.81c165.34 47.25 272.55 51.15 451.83 0v295.4c0 6.75-4.57 12.65-11.09 14.37z" />
						<path id="&lt;Compound Path&gt;" fill-rule="evenodd" class="s2" d="m645.23 530.26c-66.38 0-132.29-10.96-213.82-32.89c-0.46-0.12-0.89-0.23-1.31-0.34c-11.85-2.94-11.85-2.94-11.31-146.96c0.16-42.33 0.36-95 0.36-164.16v-2.25l2.17 0.62c172.64 49.34 277.98 49.34 450.89 0l2.17-0.62v297.65c0 7.51-5.08 14.1-12.36 16.01c-83.47 21.95-150.37 32.93-216.78 32.93zm-222.69-342.09c0 68.06-0.2 120.05-0.36 161.92c-0.53 140.02-0.44 141.37 8.73 143.64c0.44 0.11 0.9 0.22 1.38 0.35c162.43 43.69 262.63 43.67 428.85-0.05c5.78-1.52 9.82-6.75 9.82-12.72v-293.15c-90.25 25.61-161.12 36.83-229.45 36.35c-65.41-0.46-131.01-11.34-218.98-36.35z" />
					</g>
					<g id="&lt;Group&gt;">
						<path id="&lt;Path&gt;" class="s3" d="m872.67 185.92c-176.67 48.86-276.37 49.57-451.83 0c0-9.77 9.29-16.88 18.73-14.32c153.29 41.52 254.22 38.43 414.75-0.66c8.85-2.16 18.35 4.09 18.35 14.98z" />
						<path id="&lt;Compound Path&gt;" fill-rule="evenodd" class="s3" d="m645.34 224.37c-69.3 0-138.1-12.27-224.96-36.81l-1.24-0.35v-1.29c0-5.19 2.37-9.98 6.49-13.13c4.13-3.16 9.37-4.19 14.38-2.83c147.35 39.91 247.92 39.75 413.9-0.67c4.89-1.19 10.17-0.05 14.12 3.05c4.09 3.21 6.34 8.04 6.34 13.59v1.29l-1.25 0.34c-88.73 24.54-158.5 36.81-227.78 36.81zm-222.74-39.72c171.79 48.4 272.79 48.39 448.32-0.01c-0.31-3.94-2.05-7.33-4.99-9.64c-3.13-2.46-7.31-3.36-11.21-2.42c-166.62 40.57-267.61 40.73-415.6 0.65c-3.99-1.08-8.15-0.26-11.43 2.25c-2.94 2.25-4.75 5.54-5.1 9.16z" />
					</g>
					<g id="&lt;Group&gt;">
						<path id="&lt;Path&gt;" class="s4" d="m847.37 180.85c-0.76-2.07 1.47-2.36 7.16-4.46c2.04-0.75 2.41 1.61 3.89 5.6c0.76 2.07-1.47 2.36-7.16 4.46c-2.04 0.75-2.41-1.61-3.89-5.6z" />
						<g id="&lt;Group&gt;">
							<g id="&lt;Group&gt;">
								<path id="&lt;Path&gt;" class="s1" d="m851 185.55c-0.14 0-0.29-0.04-0.42-0.11c-0.41-0.23-0.55-0.75-0.31-1.16l3.78-6.56c0.23-0.41 0.76-0.55 1.16-0.31c0.41 0.23 0.55 0.75 0.31 1.16l-3.78 6.56c-0.16 0.27-0.44 0.43-0.74 0.43z" />
							</g>
							<g id="&lt;Group&gt;">
								<path id="&lt;Path&gt;" class="s1" d="m856.46 183.54c-0.09 0-0.19-0.02-0.28-0.05l-7.14-2.53c-0.44-0.16-0.67-0.64-0.52-1.08c0.16-0.44 0.65-0.67 1.09-0.52l7.14 2.53c0.44 0.16 0.67 0.64 0.52 1.08c-0.12 0.35-0.45 0.57-0.8 0.57z" />
							</g>
						</g>
					</g>
				</g>
				<g id="&lt;Group&gt;">
					<g id="&lt;Group&gt;">
						<path id="&lt;Compound Path&gt;" class="s3" d="m486.81 331.15h5.43v19.29c0 8.21-3.97 10.95-9.89 10.95c-1.5 0-3.4-0.26-4.55-0.71l0.66-4.37c0.88 0.26 2.07 0.53 3.35 0.53c3.09 0 4.99-1.41 4.99-6.58v-19.11z" />
						<path id="&lt;Compound Path&gt;" fill-rule="evenodd" class="s3" d="m509.93 360.9l-0.35-2.38c-1.46 1.68-3.71 2.87-6.49 2.87c-4.33 0-6.75-3.13-6.75-6.4c0-5.43 4.81-8.17 12.76-8.12v-0.35c0-1.41-0.57-3.75-4.37-3.75c-2.12 0-4.33 0.66-5.78 1.59l-1.06-3.53c1.59-0.97 4.37-1.9 7.77-1.9c6.89 0 8.87 4.37 8.87 9.05v7.77c0 1.94 0.09 3.84 0.31 5.16h-4.9zm-0.71-10.51c-3.84-0.09-7.5 0.75-7.5 4.02c0 2.12 1.37 3.09 3.09 3.09c2.16 0 3.75-1.41 4.24-2.96c0.13-0.4 0.18-0.84 0.18-1.19v-2.96z" />
						<path id="&lt;Compound Path&gt;" class="s3" d="m523.26 339.4l3.49 10.9c0.62 1.9 1.06 3.62 1.46 5.39c0.53-1.77 1.01-3.44 1.59-5.39l3.4-10.9h5.74l-8.21 21.5h-5.34l-7.99-21.5h5.87z" />
						<path id="&lt;Compound Path&gt;" fill-rule="evenodd" class="s3" d="m554.06 360.9l-0.35-2.38c-1.46 1.68-3.71 2.87-6.49 2.87c-4.33 0-6.75-3.13-6.75-6.4c0-5.43 4.81-8.17 12.76-8.12v-0.35c0-1.41-0.57-3.75-4.37-3.75c-2.12 0-4.33 0.66-5.78 1.59l-1.06-3.53c1.59-0.97 4.37-1.9 7.77-1.9c6.89 0 8.87 4.37 8.87 9.05v7.77c0 1.94 0.09 3.84 0.31 5.16h-4.9zm-0.71-10.51c-3.84-0.09-7.5 0.75-7.5 4.02c0 2.12 1.37 3.09 3.09 3.09c2.16 0 3.75-1.41 4.24-2.96c0.13-0.4 0.18-0.84 0.18-1.19v-2.96z" />
						<path id="&lt;Compound Path&gt;" class="s3" d="m573.61 354.98c1.77 1.01 4.41 1.9 7.19 1.9c3.49 0 5.43-1.63 5.43-4.06c0-2.25-1.5-3.58-5.3-4.94c-4.9-1.77-8.03-4.37-8.03-8.65c0-4.86 4.06-8.56 10.5-8.56c3.22 0 5.61 0.71 7.15 1.5l-1.32 4.37c-1.06-0.57-3.13-1.41-5.91-1.41c-3.44 0-4.94 1.85-4.94 3.58c0 2.29 1.72 3.35 5.69 4.9c5.16 1.94 7.68 4.55 7.68 8.83c0 4.77-3.62 8.92-11.3 8.92c-3.13 0-6.4-0.88-8.03-1.85l1.19-4.5z" />
						<path id="&lt;Compound Path&gt;" class="s3" d="m612.49 360.23c-1.15 0.53-3.4 1.1-6.09 1.1c-6.71 0-11.08-4.28-11.08-10.95c0-6.44 4.41-11.48 11.96-11.48c1.99 0 4.02 0.44 5.25 1.02l-0.97 4.06c-0.88-0.4-2.16-0.84-4.11-0.84c-4.15 0-6.62 3.05-6.58 6.97c0 4.41 2.87 6.93 6.58 6.93c1.9 0 3.22-0.4 4.28-0.84l0.75 4.02z" />
						<path id="&lt;Compound Path&gt;" class="s3" d="m616.5 346.33c0-2.91-0.04-4.99-0.18-6.93h4.72l0.18 4.1h0.18c1.06-3.05 3.58-4.59 5.87-4.59c0.53 0 0.84 0.04 1.28 0.13v5.12c-0.44-0.09-0.93-0.18-1.59-0.18c-2.6 0-4.37 1.68-4.86 4.11c-0.09 0.49-0.18 1.06-0.18 1.68v11.12h-5.43v-14.57z" />
						<path id="&lt;Compound Path&gt;" class="s3" d="m637.99 333.4c0 1.63-1.19 2.91-3.09 2.91c-1.81 0-3-1.28-3-2.91c0-1.68 1.24-2.96 3.05-2.96c1.85 0 3 1.28 3.05 2.96zm-5.78 27.5v-21.5h5.47v21.5h-5.47z" />
						<path id="&lt;Compound Path&gt;" fill-rule="evenodd" class="s3" d="m643.5 346.55c0-2.83-0.09-5.12-0.18-7.15h4.77l0.26 3.31c1.68-2.43 4.19-3.8 7.46-3.8c4.94 0 9.05 4.24 9.05 10.95c0 7.77-4.9 11.52-9.8 11.52c-2.69 0-4.94-1.15-6.05-2.87c-0.06 0-0.09 3.71-0.09 11.12h-5.43v-23.09zm5.43 5.34c0 0.53 0.05 1.01 0.18 1.5c0.53 2.21 2.47 3.8 4.77 3.8c3.44 0 5.47-2.87 5.47-7.11c0-3.8-1.85-6.89-5.34-6.89c-2.25 0-4.33 1.63-4.86 4.02c-0.13 0.44-0.22 0.93-0.22 1.37v3.31z" />
						<path id="&lt;Compound Path&gt;" class="s3" d="m675.54 333.26v6.14h5.16v4.06h-5.16v9.49c0 2.6 0.71 3.97 2.78 3.97c0.93 0 1.63-0.13 2.12-0.26l0.09 4.15c-0.79 0.31-2.21 0.53-3.93 0.53c-1.99 0-3.66-0.66-4.68-1.77c-1.15-1.24-1.68-3.18-1.68-6v-10.11h-3.09v-4.06h3.09v-4.86l5.3-1.28z" />
					</g>
					<g id="&lt;Group&gt;">
						<path id="&lt;Path&gt;" class="s8" d="m444.94 423.73c11.24 0 16.52-1.13 16.52 3.84c0 11.24 1.13 16.52-3.84 16.52c-11.24 0-16.52 1.13-16.52-3.84c0-11.24-1.13-16.52 3.84-16.52z" />
						<path id="&lt;Path&gt;" class="s8" d="m444.94 378.94c11.24 0 16.52-1.13 16.52 3.84c0 11.24 1.13 16.52-3.84 16.52c-11.24 0-16.52 1.13-16.52-3.84c0-11.24-1.13-16.52 3.84-16.52z" />
						<path id="&lt;Path&gt;" class="s8" d="m444.94 331.24c11.24 0 16.52-1.13 16.52 3.84c0 11.24 1.13 16.52-3.84 16.52c-11.24 0-16.52 1.13-16.52-3.84c0-11.24-1.13-16.52 3.84-16.52z" />
						<path id="&lt;Path&gt;" class="s8" d="m444.94 292.16c11.24 0 16.52-1.13 16.52 3.84c0 11.24 1.13 16.52-3.84 16.52c-11.24 0-16.52 1.13-16.52-3.84v-12.68c0-2.12 1.72-3.84 3.84-3.84z" />
						<path id="&lt;Path&gt;" class="s8" d="m444.94 246.44c11.24 0 16.52-1.13 16.52 3.84c0 11.24 1.13 16.52-3.84 16.52c-11.24 0-16.52 1.13-16.52-3.84c0-11.24-1.13-16.52 3.84-16.52z" />
					</g>
					<g id="&lt;Group&gt;" style="opacity: .8">
						<path id="&lt;Path&gt;" class="s8" d="m489.88 246.44c117.33 0 117.73-2.22 117.73 5.81c0 6.86 1.25 14.56-5.81 14.56c-117.33 0-117.73 2.22-117.73-5.81c0-6.86-1.25-14.56 5.81-14.56z" />
						<path id="&lt;Path&gt;" class="s8" d="m625.43 246.44c70.83 0 74.29-2.15 74.29 5.81c0 6.86 1.25 14.56-5.81 14.56c-70.83 0-74.29 2.14-74.29-5.81c0-6.86-1.25-14.56 5.81-14.56z" />
						<path id="&lt;Path&gt;" class="s8" d="m720.18 246.44c74.33 0 77.26-2.1 77.26 5.81c0 6.86 1.25 14.56-5.81 14.56c-74.33 0-77.26 2.1-77.26-5.81c0-6.86-1.25-14.56 5.81-14.56z" />
					</g>
					<g id="&lt;Group&gt;" style="opacity: .8">
						<path id="&lt;Path&gt;" class="s8" d="m489.88 292.16c117.33 0 117.73-2.22 117.73 5.81c0 6.86 1.25 14.56-5.81 14.56c-117.33 0-117.73 2.22-117.73-5.81v-8.76c0-3.21 2.6-5.81 5.81-5.81z" />
						<path id="&lt;Path&gt;" class="s8" d="m625.43 292.16c70.83 0 74.29-2.15 74.29 5.81c0 6.86 1.25 14.56-5.81 14.56c-70.83 0-74.29 2.14-74.29-5.81c0-6.86-1.25-14.56 5.81-14.56z" />
						<path id="&lt;Path&gt;" class="s8" d="m720.18 292.16c74.33 0 77.26-2.1 77.26 5.81c0 6.86 1.25 14.56-5.81 14.56c-74.33 0-77.26 2.1-77.26-5.81c0-6.86-1.25-14.56 5.81-14.56z" />
					</g>
					<g id="&lt;Group&gt;" style="opacity: .8">
						<path id="&lt;Path&gt;" class="s8" d="m489.88 378.94c117.33 0 117.73-2.22 117.73 5.81c0 6.86 1.25 14.56-5.81 14.56c-117.33 0-117.73 2.22-117.73-5.81c0-6.86-1.25-14.56 5.81-14.56z" />
						<path id="&lt;Path&gt;" class="s8" d="m625.43 378.94c70.83 0 74.29-2.14 74.29 5.81c0 6.86 1.25 14.56-5.81 14.56c-70.83 0-74.29 2.14-74.29-5.81c0-6.86-1.25-14.56 5.81-14.56z" />
						<path id="&lt;Path&gt;" class="s8" d="m720.18 378.94c74.33 0 77.26-2.1 77.26 5.81c0 6.86 1.25 14.56-5.81 14.56c-74.33 0-77.26 2.1-77.26-5.81v-8.76c0-3.21 2.6-5.81 5.81-5.81z" />
					</g>
					<g id="&lt;Group&gt;" style="opacity: .8">
						<path id="&lt;Path&gt;" class="s8" d="m489.88 423.73c117.33 0 117.73-2.22 117.73 5.81c0 6.86 1.25 14.56-5.81 14.56c-117.33 0-117.73 2.22-117.73-5.81v-8.76c0-3.21 2.6-5.81 5.81-5.81z" />
						<path id="&lt;Path&gt;" class="s8" d="m625.43 423.73c70.83 0 74.29-2.14 74.29 5.81c0 6.86 1.25 14.56-5.81 14.56c-70.83 0-74.29 2.14-74.29-5.81v-8.76c0-3.21 2.6-5.81 5.81-5.81z" />
						<path id="&lt;Path&gt;" class="s8" d="m720.18 423.73c74.33 0 77.26-2.1 77.26 5.81c0 6.86 1.25 14.56-5.81 14.56c-74.33 0-77.26 2.1-77.26-5.81c0-6.86-1.25-14.56 5.81-14.56z" />
					</g>
				</g>
			</g>
			<g id="&lt;Group&gt;">
				<g id="&lt;Group&gt;">
					<g id="&lt;Group&gt;">
						<path id="&lt;Path&gt;" class="s1" d="m219.72 717.34c-38.79 1.7 8.32-63.97-18.05-288.93c-0.11-0.95 0.67-1.77 1.62-1.71c165.54 10.6 263.27 13.68 432.62 0.03c0.93-0.08 1.72 0.71 1.65 1.64c-7.3 101.3-9.31 167.68-1.33 271.64c2.71 35.38-29.86 0.4-416.51 17.33z" />
						<path id="&lt;Compound Path&gt;" fill-rule="evenodd" class="s2" d="m218.3 719.07c-5.16 0-8.81-1.28-11.41-3.98c-6.71-6.97-5.37-23.13-2.95-52.46c3.63-43.94 9.71-117.47-3.96-234.03c-0.11-0.95 0.2-1.9 0.87-2.6c0.66-0.7 1.6-1.06 2.55-1c170.12 10.89 267.79 13.3 432.38 0.03c0.94-0.09 1.86 0.26 2.54 0.93c0.67 0.67 1.02 1.59 0.95 2.53c-7.27 100.89-9.32 167.23-1.33 271.39c0.37 4.86 0.27 9.81-2.94 13.15c-6.2 6.43-22.21 5.8-65 4.11c-56.4-2.23-161.37-6.37-350.19 1.9c-0.51 0.02-1.01 0.03-1.5 0.03zm-14.92-290.66c13.68 116.79 7.59 190.47 3.95 234.51c-2.34 28.34-3.63 43.96 2.01 49.82c2.11 2.2 5.4 3.12 10.31 2.9c188.97-8.27 294.03-4.13 350.47-1.9c40.51 1.6 57.28 2.26 62.42-3.07c1.87-1.94 2.43-4.9 2-10.53c-8-104.31-5.95-170.75 1.32-271.7c-164.63 13.27-262.37 10.86-432.48-0.03z" />
					</g>
					<g id="&lt;Group&gt;">
						<path id="&lt;Path&gt;" class="s3" d="m637.69 426.58c-171.87 14.31-266.45 10.29-436.24 0c0-37.23 60.83 4.31 419.26-16.04c9.22-0.52 16.98 6.82 16.98 16.04z" />
						<path id="&lt;Compound Path&gt;" fill-rule="evenodd" class="s3" d="m433.96 437.61c-72.81 0-142.13-3.85-232.61-9.34l-1.6-0.1v-1.6c0-5.56 1.34-9.41 4.2-12.13c7.78-7.37 26.07-6.4 70.27-4.05c57.57 3.06 164.72 8.76 346.39-1.56c4.92-0.28 9.62 1.43 13.21 4.83c3.59 3.39 5.57 7.98 5.57 12.92v1.56l-1.56 0.13c-79.93 6.66-143.12 9.34-203.88 9.34zm-230.77-12.63c164.3 9.95 258.87 14.44 432.72 0.04c-0.36-3.39-1.9-6.51-4.42-8.89c-2.9-2.74-6.68-4.13-10.68-3.9c-181.86 10.33-289.13 4.62-346.76 1.56c-40.64-2.16-61.04-3.25-67.75 3.12c-1.91 1.81-2.89 4.34-3.1 8.07z" />
					</g>
					<g id="&lt;Group&gt;">
						<path id="&lt;Path&gt;" class="s4" d="m613.47 423.13l-0.33-4.89c-0.15-2.2 2.08-1.85 8.13-2.26c2.17-0.15 1.86 2.22 2.15 6.47c0.15 2.2-2.08 1.85-8.13 2.26c-0.94 0.06-1.75-0.65-1.82-1.59z" />
						<g id="&lt;Group&gt;">
							<g id="&lt;Group&gt;">
								<path id="&lt;Path&gt;" class="s1" d="m615.54 423.82c-0.22 0-0.45-0.09-0.61-0.26c-0.32-0.34-0.31-0.88 0.03-1.2l5.47-5.23c0.34-0.33 0.88-0.31 1.2 0.03c0.32 0.34 0.31 0.88-0.03 1.2l-5.47 5.23c-0.17 0.16-0.38 0.24-0.59 0.24z" />
							</g>
							<g id="&lt;Group&gt;">
								<path id="&lt;Path&gt;" class="s1" d="m621.34 423.42c-0.17 0-0.35-0.05-0.5-0.16l-6.13-4.44c-0.38-0.27-0.46-0.81-0.19-1.19c0.28-0.38 0.8-0.47 1.19-0.19l6.13 4.44c0.38 0.27 0.46 0.81 0.19 1.19c-0.17 0.23-0.43 0.35-0.69 0.35z" />
							</g>
						</g>
					</g>
				</g>
				<g id="&lt;Group&gt;">
					<g id="&lt;Group&gt;">
						<path id="&lt;Compound Path&gt;" fill-rule="evenodd" class="s5" d="m252.44 545.09c2.59-0.47 6.18-0.83 11.07-0.83c5.3 0 9.18 1.12 11.71 3.24c2.36 1.94 3.89 5.06 3.89 8.77c0 3.77-1.18 6.89-3.41 9.01c-2.88 2.88-7.42 4.24-12.54 4.24c-1.35 0-2.59-0.06-3.53-0.24v14.95h-7.18v-39.15zm7.18 18.49c0.88 0.24 2.06 0.29 3.53 0.29c5.42 0 8.71-2.65 8.71-7.3c0-4.42-3.06-6.77-8.06-6.77c-2 0-3.42 0.18-4.18 0.35v13.42z" />
						<path id="&lt;Compound Path&gt;" class="s5" d="m289.95 555.57l5.18 15.37c0.59 1.77 1.18 3.94 1.59 5.59h0.18c0.47-1.65 1-3.77 1.53-5.65l4.47-15.31h7.77l-7.18 19.55c-3.94 10.71-6.59 15.48-10.01 18.43c-2.83 2.53-5.77 3.47-7.59 3.71l-1.65-6.12c1.24-0.29 2.77-0.94 4.24-2c1.35-0.88 2.94-2.59 3.94-4.53c0.29-0.53 0.47-0.94 0.47-1.3c0-0.29-0.06-0.71-0.41-1.41l-10.48-26.32h7.95z" />
						<path id="&lt;Compound Path&gt;" class="s5" d="m323.16 547.39v8.18h6.89v5.42h-6.89v12.66c0 3.47 0.94 5.3 3.71 5.3c1.24 0 2.18-0.18 2.83-0.35l0.12 5.53c-1.06 0.41-2.94 0.71-5.24 0.71c-2.65 0-4.89-0.88-6.24-2.35c-1.53-1.65-2.24-4.24-2.24-8.01v-13.48h-4.12v-5.42h4.12v-6.48l7.06-1.71z" />
						<path id="&lt;Compound Path&gt;" class="s5" d="m335.53 542.44h7.3v17.07c1-1.35 2.18-2.47 3.71-3.3c1.41-0.82 3.12-1.3 4.95-1.3c4.89 0 10.01 3.24 10.01 12.42v16.9h-7.24v-16.07c0-4.18-1.53-7.3-5.53-7.3c-2.83 0-4.83 1.88-5.59 4.06c-0.24 0.59-0.29 1.35-0.29 2.18v17.13h-7.3v-41.8z" />
						<path id="&lt;Compound Path&gt;" fill-rule="evenodd" class="s5" d="m396.46 569.64c0 10.54-7.42 15.25-14.72 15.25c-8.12 0-14.36-5.59-14.36-14.78c0-9.42 6.18-15.19 14.84-15.19c8.54 0 14.25 6.01 14.25 14.72zm-21.61 0.29c0 5.53 2.71 9.71 7.12 9.71c4.12 0 7.01-4.06 7.01-9.83c0-4.47-2-9.6-6.95-9.6c-5.12 0-7.18 4.94-7.18 9.71z" />
						<path id="&lt;Compound Path&gt;" class="s5" d="m402.41 564.11c0-3.3-0.06-6.06-0.24-8.54h6.36l0.35 4.3h0.18c1.24-2.24 4.36-4.95 9.12-4.95c5 0 10.18 3.24 10.18 12.3v17.01h-7.24v-16.19c0-4.12-1.53-7.24-5.48-7.24c-2.88 0-4.89 2.06-5.65 4.24c-0.24 0.65-0.29 1.53-0.29 2.36v16.84h-7.3v-20.13z" />
					</g>
					<g id="&lt;Group&gt;" style="opacity: .7">
						<path id="&lt;Path&gt;" class="s5" d="m303.14 496.63c-74.68 0-77.29 2.06-77.29-5.62c0-5.82-1.14-13.16 5.62-13.16c74.68 0 77.29-2.06 77.29 5.62c0 5.82 1.14 13.16-5.62 13.16z" />
						<path id="&lt;Path&gt;" class="s5" d="m404.65 496.63c-74.68 0-77.29 2.06-77.29-5.62c0-5.82-1.14-13.16 5.62-13.16c74.68 0 77.29-2.06 77.29 5.62c0 5.82 1.14 13.16-5.62 13.16z" />
						<path id="&lt;Path&gt;" class="s5" d="m506.16 496.63c-74.68 0-77.29 2.06-77.29-5.62c0-5.82-1.14-13.16 5.62-13.16c74.68 0 77.29-2.06 77.29 5.62v7.54c0 3.11-2.52 5.62-5.62 5.62z" />
						<path id="&lt;Path&gt;" class="s5" d="m607.67 496.63c-74.68 0-77.29 2.06-77.29-5.62c0-5.82-1.14-13.16 5.62-13.16c74.68 0 77.29-2.06 77.29 5.62c0 5.82 1.14 13.16-5.62 13.16z" />
					</g>
					<g id="&lt;Group&gt;" style="opacity: .7">
						<path id="&lt;Path&gt;" class="s5" d="m303.14 528.47c-74.68 0-77.29 2.06-77.29-5.62c0-5.82-1.14-13.16 5.62-13.16c74.68 0 77.29-2.06 77.29 5.62c0 5.82 1.14 13.16-5.62 13.16z" />
						<path id="&lt;Path&gt;" class="s5" d="m404.65 528.47c-74.68 0-77.29 2.06-77.29-5.62c0-5.82-1.14-13.16 5.62-13.16c74.68 0 77.29-2.06 77.29 5.62c0 5.82 1.14 13.16-5.62 13.16z" />
						<path id="&lt;Path&gt;" class="s5" d="m506.16 528.47c-74.68 0-77.29 2.06-77.29-5.62c0-5.82-1.14-13.16 5.62-13.16h71.66c3.11 0 5.62 2.52 5.62 5.62v7.54c0 3.11-2.52 5.62-5.62 5.62z" />
						<path id="&lt;Path&gt;" class="s5" d="m607.67 528.47c-74.68 0-77.29 2.06-77.29-5.62c0-5.82-1.14-13.16 5.62-13.16c74.68 0 77.29-2.06 77.29 5.62c0 5.82 1.14 13.16-5.62 13.16z" />
						<path id="&lt;Path&gt;" class="s5" d="m607.67 576.23c-74.68 0-77.29 2.06-77.29-5.62c0-5.82-1.14-13.16 5.62-13.16c74.68 0 77.29-2.06 77.29 5.62c0 5.82 1.14 13.16-5.62 13.16z" />
					</g>
					<g id="&lt;Group&gt;" style="opacity: .7">
						<path id="&lt;Path&gt;" class="s5" d="m303.14 623.99c-74.68 0-77.29 2.06-77.29-5.62c0-5.82-1.14-13.16 5.62-13.16c74.68 0 77.29-2.06 77.29 5.62c0 5.82 1.14 13.16-5.62 13.16z" />
						<path id="&lt;Path&gt;" class="s5" d="m404.65 623.99c-74.68 0-77.29 2.06-77.29-5.62c0-5.82-1.14-13.16 5.62-13.16c74.68 0 77.29-2.06 77.29 5.62v7.54c0 3.11-2.52 5.62-5.62 5.62z" />
						<path id="&lt;Path&gt;" class="s5" d="m506.16 623.99c-74.68 0-77.29 2.06-77.29-5.62c0-5.82-1.14-13.16 5.62-13.16c74.68 0 77.29-2.06 77.29 5.62v7.54c0 3.11-2.52 5.62-5.62 5.62z" />
						<path id="&lt;Path&gt;" class="s5" d="m607.67 623.99c-74.68 0-77.29 2.06-77.29-5.62c0-5.82-1.14-13.16 5.62-13.16c74.68 0 77.29-2.06 77.29 5.62c0 5.82 1.14 13.16-5.62 13.16z" />
					</g>
					<g id="&lt;Group&gt;" style="opacity: .7">
						<path id="&lt;Path&gt;" class="s5" d="m303.14 655.83c-74.68 0-77.29 2.06-77.29-5.62c0-5.82-1.14-13.16 5.62-13.16c74.68 0 77.29-2.06 77.29 5.62c0 5.82 1.14 13.16-5.62 13.16z" />
						<path id="&lt;Path&gt;" class="s5" d="m404.65 655.83c-74.68 0-77.29 2.06-77.29-5.62c0-5.82-1.14-13.16 5.62-13.16c74.68 0 77.29-2.06 77.29 5.62c0 5.82 1.14 13.16-5.62 13.16z" />
						<path id="&lt;Path&gt;" class="s5" d="m506.16 655.83c-74.68 0-77.29 2.06-77.29-5.62c0-5.82-1.14-13.16 5.62-13.16c74.68 0 77.29-2.06 77.29 5.62c0 5.82 1.14 13.16-5.62 13.16z" />
						<path id="&lt;Path&gt;" class="s5" d="m607.67 655.83c-74.68 0-77.29 2.06-77.29-5.62c0-5.82-1.14-13.16 5.62-13.16c74.68 0 77.29-2.06 77.29 5.62c0 5.82 1.14 13.16-5.62 13.16z" />
					</g>
					<g id="&lt;Group&gt;" style="opacity: .7">
						<path id="&lt;Path&gt;" class="s5" d="m303.14 687.67c-74.68 0-77.29 2.06-77.29-5.62c0-5.82-1.14-13.16 5.62-13.16c74.68 0 77.29-2.06 77.29 5.62c0 5.82 1.14 13.16-5.62 13.16z" />
						<path id="&lt;Path&gt;" class="s5" d="m404.65 687.67c-74.68 0-77.29 2.06-77.29-5.62c0-5.82-1.14-13.16 5.62-13.16c74.68 0 77.29-2.06 77.29 5.62v7.54c0 3.11-2.52 5.62-5.62 5.62z" />
						<path id="&lt;Path&gt;" class="s5" d="m506.16 687.67c-74.68 0-77.29 2.06-77.29-5.62c0-5.82-1.14-13.16 5.62-13.16c74.68 0 77.29-2.06 77.29 5.62c0 5.82 1.14 13.16-5.62 13.16z" />
						<path id="&lt;Path&gt;" class="s5" d="m607.67 687.67c-74.68 0-77.29 2.06-77.29-5.62c0-5.82-1.14-13.16 5.62-13.16c74.68 0 77.29-2.06 77.29 5.62c0 5.82 1.14 13.16-5.62 13.16z" />
					</g>
				</g>
			</g>
			<g id="&lt;Group&gt;">
				<g id="&lt;Group&gt;">
					<g id="&lt;Group&gt;">
						<path id="&lt;Path&gt;" class="s1" d="m773.42 817.93c-13.26-3.68-9.28 13.33-9.28-377.71c162.56 41.28 287.58 41.28 375.04 0v367.42c0 28.05-152.65 69.43-365.76 10.29z" />
						<path id="&lt;Compound Path&gt;" fill-rule="evenodd" class="s2" d="m981.34 849.31c-57.79 0-128.73-8.03-208.27-30.1c-0.5-0.14-0.98-0.25-1.43-0.35c-9.71-2.21-9.71-2.21-9.2-166.34c0.16-51.14 0.38-121.19 0.38-212.3v-1.71l1.65 0.42c0.61 0.16 61.78 15.55 138.16 23.19c70.4 7.04 168.49 8.75 235.98-23.1l1.9-0.89v369.52c0 4.18-2.82 8.44-8.38 12.67c-19 14.44-72.98 29.01-150.78 29.01zm-207.56-32.66c185.74 51.54 324 26.44 356.74 1.54c4.8-3.65 7.33-7.3 7.33-10.55v-365.34c-67.97 31.2-165.43 29.47-235.52 22.46c-69.57-6.96-126.56-20.34-136.86-22.85c0 90.29-0.22 159.79-0.38 210.62c-0.5 158.97-0.37 162.03 7.13 163.74c0.49 0.11 1.01 0.23 1.56 0.38z" />
					</g>
					<g id="&lt;Group&gt;">
						<path id="&lt;Path&gt;" class="s3" d="m1139.18 440.22c-83.29 41.28-208.3 41.28-375.04 0c0-15.54 10.01-17.44 15.67-16.07c53.46 12.91 231.45 50.19 341.7 4.4c8.4-3.49 17.66 2.57 17.66 11.67z" />
						<path id="&lt;Compound Path&gt;" fill-rule="evenodd" class="s3" d="m985.73 469c-28.59 0-56.43-1.8-81.04-4.24c-77.34-7.66-140.23-23.1-140.86-23.25l-1.01-0.25v-1.04c0-7 1.93-12.06 5.73-15.06c4.6-3.62 10.03-2.68 11.58-2.31c52.15 12.6 230.87 50.15 340.88 4.47c4.39-1.82 9.36-1.35 13.3 1.28c3.89 2.59 6.2 6.94 6.2 11.62v0.82l-0.74 0.37c-42.5 21.06-99.61 27.59-154.04 27.59zm-220.24-29.82c17.59 4.19 253.06 58.61 372.34 0.23c-0.24-3.51-2.03-6.61-5-8.59c-3.19-2.13-7.23-2.52-10.8-1.04c-39.66 16.47-88.14 22.21-136.42 22.21c-86.55 0-172.49-18.43-206.1-26.55c-1.26-0.3-5.65-1.07-9.31 1.81c-2.95 2.32-4.53 6.33-4.7 11.93z" />
					</g>
					<g id="&lt;Group&gt;">
						<path id="&lt;Path&gt;" class="s4" d="m1117.49 436.31c-0.79-2.06 1.45-2.38 7.12-4.54c2.03-0.77 2.43 1.58 3.95 5.56c0.79 2.06-1.45 2.38-7.12 4.54c-2.03 0.77-2.43-1.58-3.95-5.56z" />
						<g id="&lt;Group&gt;">
							<g id="&lt;Group&gt;">
								<path id="&lt;Path&gt;" class="s1" d="m1121.17 440.97c-0.14 0-0.28-0.03-0.42-0.11c-0.41-0.23-0.55-0.75-0.32-1.16l3.71-6.6c0.23-0.41 0.74-0.56 1.16-0.32c0.41 0.23 0.55 0.75 0.32 1.16l-3.71 6.6c-0.16 0.28-0.44 0.43-0.74 0.43z" />
							</g>
							<g id="&lt;Group&gt;">
								<path id="&lt;Path&gt;" class="s1" d="m1126.6 438.9c-0.09 0-0.18-0.01-0.28-0.05l-7.16-2.46c-0.44-0.15-0.68-0.64-0.53-1.08c0.15-0.44 0.63-0.68 1.08-0.53l7.16 2.46c0.44 0.15 0.68 0.64 0.53 1.08c-0.12 0.35-0.45 0.57-0.8 0.57z" />
							</g>
						</g>
					</g>
				</g>
				<g id="&lt;Group&gt;">
					<g id="&lt;Group&gt;">
						<g id="&lt;Group&gt;">
							<path id="&lt;Compound Path&gt;" class="s3" d="m976.12 579.8c-1.28 0.66-4.1 1.32-7.68 1.32c-9.45 0-15.18-5.91-15.18-14.96c0-9.8 6.8-15.71 15.89-15.71c3.58 0 6.14 0.75 7.24 1.32l-1.19 4.33c-1.41-0.62-3.35-1.15-5.83-1.15c-6.05 0-10.42 3.8-10.42 10.95c0 6.53 3.84 10.73 10.37 10.73c2.21 0 4.5-0.44 5.91-1.1l0.88 4.28z" />
							<path id="&lt;Compound Path&gt;" class="s3" d="m992.57 557.2v9.98h9.58v3.44h-9.58v10.06h-3.62v-10.06h-9.58v-3.44h9.58v-9.98h3.62z" />
							<path id="&lt;Compound Path&gt;" class="s3" d="m1018.87 557.2v9.98h9.58v3.44h-9.58v10.06h-3.62v-10.06h-9.58v-3.44h9.58v-9.98h3.62z" />
						</g>
					</g>
					<g id="&lt;Group&gt;">
						<g id="&lt;Group&gt;">
							<path id="&lt;Compound Path&gt;" fill-rule="evenodd" class="s5" d="m966.14 642.78c2.59-0.47 6.18-0.82 11.07-0.82c5.3 0 9.19 1.12 11.72 3.24c2.35 1.94 3.89 5.06 3.89 8.77c0 3.77-1.18 6.89-3.42 9.01c-2.88 2.88-7.42 4.24-12.54 4.24c-1.35 0-2.59-0.06-3.53-0.24v14.95h-7.18v-39.15zm7.18 18.49c0.88 0.24 2.06 0.3 3.53 0.3c5.42 0 8.71-2.65 8.71-7.3c0-4.42-3.06-6.77-8.07-6.77c-2 0-3.41 0.18-4.18 0.35v13.42z" />
							<path id="&lt;Compound Path&gt;" class="s5" d="m1006.29 642.25v15.9h16.78v-15.9h7.24v39.68h-7.24v-17.48h-16.78v17.48h-7.24v-39.68h7.24z" />
							<path id="&lt;Compound Path&gt;" fill-rule="evenodd" class="s5" d="m1038.62 642.78c2.59-0.47 6.18-0.82 11.07-0.82c5.3 0 9.19 1.12 11.72 3.24c2.35 1.94 3.89 5.06 3.89 8.77c0 3.77-1.18 6.89-3.42 9.01c-2.88 2.88-7.42 4.24-12.54 4.24c-1.35 0-2.59-0.06-3.53-0.24v14.95h-7.18v-39.15zm7.18 18.49c0.88 0.24 2.06 0.3 3.53 0.3c5.42 0 8.71-2.65 8.71-7.3c0-4.42-3.06-6.77-8.06-6.77c-2 0-3.41 0.18-4.18 0.35v13.42z" />
						</g>
					</g>
					<g id="&lt;Group&gt;">
						<g id="&lt;Group&gt;">
							<path id="&lt;Compound Path&gt;" class="s3" d="m1049.88 778.6c-1.28 0.66-4.1 1.32-7.68 1.32c-9.45 0-15.19-5.92-15.19-14.96c0-9.8 6.8-15.71 15.89-15.71c3.58 0 6.14 0.75 7.24 1.32l-1.19 4.33c-1.41-0.62-3.35-1.15-5.83-1.15c-6.05 0-10.42 3.8-10.42 10.95c0 6.53 3.84 10.73 10.37 10.73c2.21 0 4.5-0.44 5.91-1.1l0.88 4.28z" />
							<path id="&lt;Compound Path&gt;" fill-rule="evenodd" class="s3" d="m1055.48 779.49l1.15-8.21h-3.62v-3.44h4.15l0.79-5.61h-3.8v-3.4h4.28l1.15-8.03h3.31l-1.1 8.03h4.28l1.15-8.03h3.31l-1.1 8.03h3.58v3.4h-4.1l-0.75 5.61h3.71v3.4h-4.28l-1.1 8.25h-3.4l1.15-8.25h-4.24l-1.15 8.25h-3.35zm9.31-11.65l0.75-5.61h-4.28l-0.75 5.61h4.28z" />
						</g>
					</g>
					<g id="&lt;Group&gt;" style="opacity: .8">
						<path id="&lt;Path&gt;" class="s9" d="m922 506.29h-65.46c-2.84 0-5.14-2.3-5.14-5.14v-6.88c0-2.84 2.3-5.14 5.14-5.14h65.46c2.84 0 5.14 2.3 5.14 5.14v6.88c0 2.84-2.3 5.14-5.14 5.14z" />
						<g id="&lt;Group&gt;">
							<path id="&lt;Path&gt;" class="s5" d="m1008.08 506.29c-68.24 0-70.6 1.88-70.6-5.14c0-5.19-1.06-12.02 5.14-12.02c68.24 0 70.6-1.88 70.6 5.14c0 5.19 1.06 12.02-5.14 12.02z" />
						</g>
						<path id="&lt;Path&gt;" class="s9" d="m1094.16 506.29c-68.24 0-70.6 1.88-70.6-5.14c0-5.19-1.06-12.02 5.14-12.02c68.24 0 70.6-1.88 70.6 5.14c0 5.19 1.06 12.02-5.14 12.02z" />
					</g>
					<g id="&lt;Group&gt;" style="opacity: .8">
						<path id="&lt;Path&gt;" class="s9" d="m922 542.23h-65.46c-2.84 0-5.14-2.3-5.14-5.14v-6.88c0-2.84 2.3-5.14 5.14-5.14h65.46c2.84 0 5.14 2.3 5.14 5.14v6.88c0 2.84-2.3 5.14-5.14 5.14z" />
						<path id="&lt;Path&gt;" class="s9" d="m1008.08 542.23c-68.24 0-70.6 1.88-70.6-5.14c0-5.19-1.06-12.02 5.14-12.02c68.24 0 70.6-1.88 70.6 5.14c0 5.19 1.06 12.02-5.14 12.02z" />
					</g>
					<path id="&lt;Path&gt;" class="s10" d="m922 578.17h-65.46c-2.84 0-5.14-2.3-5.14-5.14v-6.89c0-2.84 2.3-5.14 5.14-5.14h65.46c2.84 0 5.14 2.3 5.14 5.14v6.89c0 2.84-2.3 5.14-5.14 5.14z" />
					<g id="&lt;Group&gt;" style="opacity: .8">
						<path id="&lt;Path&gt;" class="s9" d="m922 614.11c-68.23 0-70.6 1.88-70.6-5.14c0-5.19-1.06-12.02 5.14-12.02c68.24 0 70.6-1.88 70.6 5.14v6.88c0 2.84-2.3 5.14-5.14 5.14z" />
						<path id="&lt;Path&gt;" class="s9" d="m1008.08 614.11h-65.46c-2.84 0-5.14-2.3-5.14-5.14v-6.88c0-2.84 2.3-5.14 5.14-5.14h65.46c2.84 0 5.14 2.3 5.14 5.14v6.88c0 2.84-2.3 5.14-5.14 5.14z" />
						<path id="&lt;Path&gt;" class="s9" d="m1094.16 614.11c-68.24 0-70.6 1.88-70.6-5.14c0-5.19-1.06-12.02 5.14-12.02c68.24 0 70.6-1.88 70.6 5.14c0 5.19 1.06 12.02-5.14 12.02z" />
					</g>
					<path id="&lt;Path&gt;" class="s11" d="m922 650.05c-68.23 0-70.6 1.88-70.6-5.14c0-5.19-1.06-12.02 5.14-12.02h65.46c2.84 0 5.14 2.3 5.14 5.14v6.88c0 2.84-2.3 5.14-5.14 5.14z" />
					<path id="&lt;Path&gt;" class="s11" d="m922 685.99c-68.23 0-70.6 1.88-70.6-5.14c0-5.19-1.06-12.02 5.14-12.02c68.24 0 70.6-1.88 70.6 5.14v6.88c0 2.84-2.3 5.14-5.14 5.14z" />
					<g id="&lt;Group&gt;" style="opacity: .8">
						<path id="&lt;Path&gt;" class="s9" d="m922 721.93c-68.23 0-70.6 1.88-70.6-5.14c0-5.19-1.06-12.02 5.14-12.02c68.24 0 70.6-1.88 70.6 5.14c0 5.19 1.06 12.02-5.14 12.02z" />
						<path id="&lt;Path&gt;" class="s9" d="m1008.08 721.93c-68.24 0-70.6 1.88-70.6-5.14c0-5.19-1.06-12.02 5.14-12.02c68.24 0 70.6-1.88 70.6 5.14c0 5.19 1.06 12.02-5.14 12.02z" />
						<path id="&lt;Path&gt;" class="s9" d="m1094.16 721.93c-68.24 0-70.6 1.88-70.6-5.14c0-5.19-1.06-12.02 5.14-12.02c68.24 0 70.6-1.88 70.6 5.14c0 5.19 1.06 12.02-5.14 12.02z" />
					</g>
					<path id="&lt;Path&gt;" class="s10" d="m922 757.87c-68.23 0-70.6 1.88-70.6-5.14c0-5.19-1.06-12.02 5.14-12.02h65.46c2.84 0 5.14 2.3 5.14 5.14v6.89c0 2.84-2.3 5.14-5.14 5.14z" />
					<g id="&lt;Group&gt;" style="opacity: .8">
						<path id="&lt;Path&gt;" class="s5" d="m1008.08 757.87h-65.46c-2.84 0-5.14-2.3-5.14-5.14v-6.89c0-2.84 2.3-5.14 5.14-5.14c68.24 0 70.6-1.88 70.6 5.14v6.89c0 2.84-2.3 5.14-5.14 5.14z" />
					</g>
					<path id="&lt;Path&gt;" class="s10" d="m922 793.81c-68.23 0-70.6 1.88-70.6-5.14c0-5.19-1.06-12.02 5.14-12.02c68.24 0 70.6-1.88 70.6 5.14c0 5.19 1.06 12.02-5.14 12.02z" />
					<path id="&lt;Path&gt;" class="s10" d="m1008.08 793.81c-68.24 0-70.6 1.88-70.6-5.14c0-5.19-1.06-12.02 5.14-12.02c68.24 0 70.6-1.88 70.6 5.14c0 5.19 1.06 12.02-5.14 12.02z" />
					<path id="&lt;Path&gt;" class="s11" d="m1055.09 559.4h12.68c2.12 0 3.84 1.72 3.84 3.84c0 11.24 1.13 16.52-3.84 16.52c-11.24 0-16.52 1.13-16.52-3.84v-12.68c0-2.12 1.72-3.84 3.84-3.84z" />
					<path id="&lt;Path&gt;" class="s11" d="m1082.77 559.4h12.68c2.12 0 3.84 1.72 3.84 3.84c0 11.24 1.13 16.52-3.84 16.52c-11.24 0-16.52 1.13-16.52-3.84v-12.68c0-2.12 1.72-3.84 3.84-3.84z" />
					<path id="&lt;Path&gt;" class="s11" d="m795.78 739.11c11.24 0 16.52-1.13 16.52 3.84c0 11.24 1.13 16.52-3.84 16.52c-11.24 0-16.52 1.13-16.52-3.84c0-11.24-1.13-16.52 3.84-16.52z" />
					<path id="&lt;Path&gt;" class="s11" d="m823.46 739.11c11.24 0 16.52-1.13 16.52 3.84c0 11.24 1.13 16.52-3.84 16.52c-11.24 0-16.52 1.13-16.52-3.84v-12.68c0-2.12 1.72-3.84 3.84-3.84z" />
					<path id="&lt;Path&gt;" class="s11" d="m795.78 667.23c11.24 0 16.52-1.13 16.52 3.84c0 11.24 1.13 16.52-3.84 16.52c-11.24 0-16.52 1.13-16.52-3.84c0-11.24-1.13-16.52 3.84-16.52z" />
					<path id="&lt;Path&gt;" class="s11" d="m823.46 667.23c11.24 0 16.52-1.13 16.52 3.84c0 11.24 1.13 16.52-3.84 16.52c-11.24 0-16.52 1.13-16.52-3.84c0-11.24-1.13-16.52 3.84-16.52z" />
					<path id="&lt;Path&gt;" class="s11" d="m795.78 595.35c11.24 0 16.52-1.13 16.52 3.84c0 11.24 1.13 16.52-3.84 16.52c-11.24 0-16.52 1.13-16.52-3.84c0-11.24-1.13-16.52 3.84-16.52z" />
					<path id="&lt;Path&gt;" class="s11" d="m823.46 595.35c11.24 0 16.52-1.13 16.52 3.84c0 11.24 1.13 16.52-3.84 16.52c-11.24 0-16.52 1.13-16.52-3.84c0-11.24-1.13-16.52 3.84-16.52z" />
					<path id="&lt;Path&gt;" class="s11" d="m795.78 523.46h12.68c2.12 0 3.84 1.72 3.84 3.84v12.68c0 2.12-1.72 3.84-3.84 3.84h-12.68c-2.12 0-3.84-1.72-3.84-3.84v-12.68c0-2.12 1.72-3.84 3.84-3.84z" />
					<path id="&lt;Path&gt;" class="s11" d="m823.46 523.46h12.68c2.12 0 3.84 1.72 3.84 3.84v12.68c0 2.12-1.72 3.84-3.84 3.84h-12.68c-2.12 0-3.84-1.72-3.84-3.84v-12.68c0-2.12 1.72-3.84 3.84-3.84z" />
					<path id="&lt;Path&gt;" class="s11" d="m1094.08 757.42c23.19 0 29.02-1.47 29.02 4.97c0 8.59 1.28 15.4-4.97 15.4c-23.19 0-29.02 1.47-29.02-4.97c0-8.59-1.28-15.4 4.97-15.4z" />
				</g>
			</g>
			<g id="&lt;Group&gt;">
				<g id="&lt;Group&gt;">
					<path id="&lt;Path&gt;" class="s1" d="m669.13 837.41c-169.66-10.89-225.93 19.41-221.64-14.04c1.38-10.75 2.74-25.16 2.74-40.09c0-22.59 19.19-40.55 41.74-39.22c165.24 9.73 223.11-19.5 215.75 15.03c-3.66 17.2-6.44 33.76-6.31 48.1c0.15 17.49-14.83 31.35-32.29 30.23z" />
					<path id="&lt;Compound Path&gt;" fill-rule="evenodd" class="s2" d="m472.09 841.36c-12.09 0-19.44-1.38-23.39-5.59c-2.71-2.89-3.63-6.9-2.9-12.61c1.24-9.71 2.73-24.51 2.73-39.88c0-11.36 4.57-21.92 12.88-29.76c8.23-7.76 19.41-11.82 30.66-11.17c71.07 4.18 122.74 1.12 156.93-0.9c34.56-2.05 51.91-3.08 58.39 4.47c2.66 3.1 3.29 7.39 1.99 13.52c-2.99 14.05-6.41 32.17-6.27 47.73c0.08 8.84-3.44 17.07-9.91 23.2c-6.48 6.13-15.31 9.31-24.18 8.75c-75.63-4.86-128.76-1.51-163.91 0.7c-13.66 0.86-24.51 1.54-33.02 1.54zm17.5-95.67c-9.64 0-18.75 3.61-25.85 10.31c-7.62 7.18-11.81 16.87-11.81 27.28c0 15.55-1.5 30.5-2.75 40.31c-0.59 4.63 0.04 7.76 2.01 9.85c5.63 6.01 23.73 4.87 53.72 2.98c35.24-2.22 88.5-5.57 164.34-0.7c7.95 0.52 15.83-2.34 21.63-7.82c5.78-5.46 8.92-12.82 8.85-20.7c-0.14-15.89 3.32-34.25 6.35-48.47c1.07-5 0.67-8.37-1.24-10.59c-5.39-6.27-24.29-5.15-55.62-3.29c-34.27 2.03-86.06 5.1-157.33 0.9c-0.76-0.04-1.53-0.07-2.28-0.07z" />
				</g>
				<g id="&lt;Group&gt;">
					<g id="&lt;Group&gt;">
						<path id="&lt;Compound Path&gt;" class="s3" d="m599 801.75c-1.28 0.66-4.1 1.32-7.68 1.32c-9.45 0-15.19-5.92-15.19-14.96c0-9.8 6.8-15.72 15.89-15.72c3.58 0 6.14 0.75 7.24 1.32l-1.19 4.33c-1.41-0.62-3.35-1.15-5.83-1.15c-6.05 0-10.42 3.8-10.42 10.95c0 6.53 3.84 10.73 10.37 10.73c2.21 0 4.5-0.44 5.91-1.1l0.88 4.28z" />
						<path id="&lt;Compound Path&gt;" fill-rule="evenodd" class="s3" d="m604.6 802.64l1.15-8.21h-3.62v-3.44h4.15l0.79-5.61h-3.8v-3.4h4.28l1.15-8.03h3.31l-1.1 8.03h4.28l1.15-8.03h3.31l-1.1 8.03h3.58v3.4h-4.1l-0.75 5.61h3.71v3.4h-4.28l-1.1 8.25h-3.4l1.15-8.25h-4.24l-1.15 8.25h-3.35zm9.31-11.65l0.75-5.61h-4.28l-0.75 5.61h4.28z" />
					</g>
				</g>
				<g id="&lt;Group&gt;" style="opacity: .8">
					<path id="&lt;Path&gt;" class="s5" d="m558.9 784.42c-68.24 0-70.6 1.88-70.6-5.14c0-5.19-1.06-12.02 5.14-12.02c68.24 0 70.6-1.88 70.6 5.14c0 5.19 1.06 12.02-5.14 12.02z" />
				</g>
				<path id="&lt;Path&gt;" class="s10" d="m558.9 811.86c-68.24 0-70.6 1.88-70.6-5.14c0-5.19-1.06-12.02 5.14-12.02c68.24 0 70.6-1.88 70.6 5.14c0 5.19 1.06 12.02-5.14 12.02z" />
				<path id="&lt;Path&gt;" class="s11" d="m644.9 777.17c23.19 0 29.02-1.47 29.02 4.97c0 8.59 1.28 15.4-4.97 15.4c-23.19 0-29.02 1.47-29.02-4.97c0-8.59-1.28-15.4 4.97-15.4z" />
				<path id="&lt;Path&gt;" class="s11" d="m469.36 767.26c12.26 0 16.84-1.04 16.84 3.53c0 8.74 0.99 13.63-3.53 13.63c-12.26 0-16.84 1.04-16.84-3.53c0-8.74-0.99-13.63 3.53-13.63z" />
				<path id="&lt;Path&gt;" class="s11" d="m469.36 794.71c12.26 0 16.84-1.04 16.84 3.53c0 8.74 0.99 13.63-3.53 13.63c-12.26 0-16.84 1.04-16.84-3.53c0-8.74-0.99-13.63 3.53-13.63z" />
			</g>
			<g id="&lt;Group&gt;" style="mix-blend-mode: multiply">
				<path id="&lt;Path&gt;" class="s12" d="m930.24 1107.06c0 42.99-328.07 42.99-328.07 0c0-42.99 328.07-42.99 328.07 0z" />
			</g>
			<g id="&lt;Group&gt;">
				<path id="&lt;Path&gt;" class="s13" d="m783.06 392.05c0.12 0.35 0.32 18.22 0.24 22.59c-0.35 18.21 13.22 19.84 31.88 33.42c-10.11 8.77-29.89 19.78-59.33 33.03c-13.76-7.1-27.62-20.26-41.6-39.48c35.21-16.57 28.87-30.76 28.63-49.9l40.17 0.36z" />
				<path id="&lt;Compound Path&gt;" class="s13" d="m744.96 395.09c-12.62-4.67-17.46-14.77-14.54-30.29c-18.71-7.83 2.19-8.3 5.78-34.3c7.7-45.41 61.04-25.33 63.94 0.24c4.19 36.89-13.12 64.91-23.12 67.65c-16.24 4.45-38.21-5.8-32.07-3.3z" />
				<g id="&lt;Group&gt;">
					<path id="&lt;Path&gt;" class="s14" d="m686.61 1028.47l33.98-0.81l-9.24 44.52c-9.06 5.23-18.96 6.34-25.39 1.39l0.64-45.1z" />
				</g>
				<g id="&lt;Group&gt;">
					<path id="&lt;Path&gt;" class="s14" d="m851.77 1073.56c-6.43 4.95-16.32 3.84-25.39-1.39l-9.24-44.52l33.98 0.81l0.64 45.1z" />
				</g>
				<g id="&lt;Group&gt;">
					<path id="&lt;Path&gt;" class="s15" d="m827.77 628c30.95 122.31 35.89 428.02 29.55 429.53c-4.02 0.96-36.83 6.78-38.26 0.25c-21.88-100.24-40.72-198.82-56.52-295.75c-13.5 149.88-37.4 295.97-46.34 297.19c-8.07 1.1-36.38-1.92-36.82-8.14c-2.34-33.17-7.16-354.42 13.43-424.57l134.95 1.48z" />
					<path id="&lt;Compound Path&gt;" fill-rule="evenodd" class="s16" d="m829.62 1061.68c-4.27 0-7.89-0.44-9.79-1.63c-0.88-0.55-1.42-1.25-1.6-2.09c-28.54-130.79-50.43-259.26-55.44-289.25c-6.25 67.79-15.05 139.52-24.29 197.81c-6.69 42.21-15.97 92.71-22.18 93.56c-6.83 0.94-29.96-1.17-36.09-6.14c-1.05-0.85-1.62-1.79-1.69-2.78c-2.59-36.71-6.9-355.5 13.46-424.87l0.18-0.62l0.64 0.01l135.61 1.49l0.16 0.63c17.47 69.05 25.42 190.26 28.6 256.36c4.41 91.52 4.22 168.46 1.12 173.58c-0.21 0.34-0.47 0.55-0.79 0.63c-2.48 0.59-17.24 3.33-27.9 3.33zm-67.32-306.43l1.08 6.64c0.24 1.45 24.08 147.08 56.51 295.7c0.08 0.38 0.36 0.71 0.84 1.01c5.61 3.53 30.84-0.63 36.18-1.86c2.56-4.74 3.11-78-1.38-171.75c-3.16-66.05-11.06-186.97-28.43-256.16l-133.65-1.47c-20.11 70.45-15.79 387.09-13.22 423.65c0.04 0.5 0.4 1.04 1.07 1.58c5.41 4.4 27.54 6.77 34.79 5.78c2.33-0.32 9.32-20.08 20.73-92.14c9.53-60.15 18.6-134.61 24.87-204.29l0.6-6.7z" />
				</g>
				<g id="&lt;Group&gt;">
					<path id="&lt;Path&gt;" class="s15" d="m793.23 648.91c0 0.58-0.25-23.98 0.39-23.98c-0.6 0 3.99-0.29 3.99 0.39c0-0.58 0.25 23.98-0.39 23.98c0.6 0-3.99 0.29-3.99-0.39z" />
					<path id="&lt;Path&gt;" class="s15" d="m714.33 647.23c0 0.58-0.25-23.98 0.39-23.98c-0.6 0 3.99-0.29 3.99 0.39c0-0.58 0.25 23.98-0.39 23.98c0.6 0-3.99 0.29-3.99-0.39z" />
				</g>
				<g id="&lt;Group&gt;">
					<path id="&lt;Path&gt;" class="s17" d="m835.38 484.26c3.59 50.88 7.43 130.05-2.37 142.25c-7.23 9-92.99 13.08-140.18 0c-10.4-2.88-6.47-106.11-7.68-162.76c-0.58-27.26 26.75-31.85 54.39-40.27c12.03 6.06 30.81 6.67 45.78-1.73c29.2 8.59 48.07 34.26 50.07 62.51z" />
					<path id="&lt;Compound Path&gt;" fill-rule="evenodd" class="s18" d="m770.36 635.74c-26.63 0-56.3-2.46-77.77-8.41c-7.71-2.14-8.2-45.68-8.06-111.86c0.04-18.93 0.08-36.81-0.24-51.7c-0.53-24.96 22.1-31.52 46.05-38.47c2.95-0.86 5.95-1.72 8.94-2.64l0.33-0.1l0.3 0.15c10.65 5.36 29.26 7.12 44.98-1.71l0.31-0.18l0.34 0.1c28.22 8.3 48.59 33.72 50.68 63.27c4.14 58.56 7.05 130.88-2.56 142.84c-4.19 5.21-31.6 8.69-63.3 8.69zm-30.91-211.35c-2.9 0.88-5.79 1.72-8.64 2.55c-24.32 7.05-45.33 13.14-44.83 36.8c0.32 14.92 0.28 32.81 0.24 51.74c-0.1 48.23-0.22 108.26 6.82 110.22c48.12 13.34 132.73 8.46 139.29 0.29c7.23-9 8-59.3 2.19-141.66c-2.06-29.17-21.33-53.33-49.12-61.66c-16.05 8.85-34.94 7.13-45.95 1.72z" />
				</g>
				<g id="&lt;Group&gt;">
					<g id="&lt;Group&gt;">
						<path id="&lt;Path&gt;" class="s19" d="m805.1 411.32c-4.98 0-11.99-1.01-21.74-3.03c-0.46-0.1-0.76-0.55-0.66-1.01c0.09-0.46 0.55-0.75 1-0.66c17.73 3.68 26.2 3.97 29.26 1.01c2.44-2.37 1.57-7.24 0.37-13.98c-1.29-7.23-3.06-17.12-1.29-28.65c5.78-37.72-12.3-52.39-23.59-57.77c-16.28-7.76-36.09-5.15-42.92 2.37c-0.32 0.35-0.85 0.37-1.2 0.06c-0.35-0.32-0.37-0.85-0.06-1.2c7.24-7.96 27.98-10.83 44.91-2.76c11.72 5.59 30.49 20.75 24.54 59.56c-1.72 11.25-0.06 20.59 1.28 28.09c1.29 7.26 2.23 12.5-0.86 15.5c-1.69 1.65-4.53 2.47-9.04 2.47z" />
					</g>
					<g id="&lt;Group&gt;">
						<path id="&lt;Path&gt;" class="s19" d="m763.25 398.41c-0.15 0-0.3-0.04-0.43-0.12c-12.29-7.28-13.26-22.72-13.9-32.94c-0.21-3.38-0.4-6.29-0.95-7.95c-1.97-5.9-7.38-9.74-12.62-13.46c-3.88-2.75-7.55-5.35-9.33-8.59c-2.3-4.17-2.77-11.97 0.91-18.19c2.42-4.1 7.5-8.98 17.98-8.98c0.47 0 0.85 0.38 0.85 0.85c0 0.47-0.38 0.85-0.85 0.85c-9.68 0-14.32 4.43-16.52 8.15c-3.36 5.68-2.96 12.75-0.89 16.51c1.6 2.89 5.11 5.38 8.83 8.02c5.21 3.69 11.11 7.88 13.26 14.31c0.62 1.87 0.8 4.74 1.03 8.38c0.62 9.86 1.55 24.76 13.07 31.58c0.4 0.24 0.54 0.76 0.3 1.16c-0.16 0.27-0.44 0.42-0.73 0.42z" />
					</g>
				</g>
				<path id="&lt;Path&gt;" class="s19" d="m749.98 304.78c23.04-8.17 51.89 5.71 57.1 23.76c4.01 13.89 8.88 68.09-8.75 56.96c-19.11-12.07-30-44.35-42.56-61.95c-2.19-3.07-21.45-13.22-5.79-18.77z" />
				<path id="&lt;Path&gt;" class="s19" d="m771.26 318.76c9.17 8.64 7.55 13.29 10.03 21.59c5.86 19.61 29.95 27.09 31.3 58.57c0.4 9.31-4.16 11.42-12.81 9.48c-34.91-7.85-47.84-5.49-47.21-30.63c0.86-34.15-8.97-28.62-19.61-39.24c-17.37-17.35 9.62-46.77 38.29-19.77z" />
				<g id="&lt;Group&gt;">
					<g id="&lt;Group&gt;">
						<path id="&lt;Path&gt;" class="s20" d="m744.9 337.59c-0.18 0-0.37-0.06-0.52-0.18c-9.27-7.18-9.71-13.25-8.45-17.08c1.41-4.28 5.63-7.23 8.68-7.3c0.49-0.01 0.86 0.36 0.87 0.83c0.01 0.47-0.36 0.86-0.83 0.87c-2.14 0.05-5.87 2.4-7.1 6.13c-1.09 3.31-0.61 8.63 7.88 15.2c0.37 0.29 0.44 0.82 0.15 1.19c-0.17 0.22-0.42 0.33-0.67 0.33z" />
					</g>
					<g id="&lt;Group&gt;">
						<path id="&lt;Path&gt;" class="s20" d="m794.06 318.35c-0.21 0-0.42-0.08-0.58-0.23c-15.49-14.61-29.9-12.04-40.73-8.17c-0.44 0.16-0.93-0.07-1.09-0.51c-0.16-0.44 0.07-0.93 0.51-1.09c10.4-3.72 26.12-6.88 42.46 8.54c0.34 0.32 0.36 0.86 0.03 1.2c-0.17 0.18-0.39 0.27-0.62 0.27z" />
					</g>
					<g id="&lt;Group&gt;">
						<path id="&lt;Path&gt;" class="s20" d="m755.38 330.06c-0.5-0.01-0.86-0.41-0.85-0.88c0.2-6.44-2.41-12.99-6.99-17.52c-0.33-0.33-0.34-0.87-0.01-1.2c0.33-0.33 0.87-0.34 1.2-0.01c4.91 4.85 7.71 11.87 7.5 18.78c-0.01 0.46-0.39 0.82-0.85 0.82z" />
					</g>
					<g id="&lt;Group&gt;">
						<path id="&lt;Path&gt;" class="s20" d="m777.39 320.99c-0.17 0-0.34-0.05-0.49-0.16c-8.23-5.86-13.37-6.6-21.15-3.03c-0.42 0.19-0.93 0.01-1.13-0.42c-0.2-0.43-0.01-0.93 0.42-1.13c8.34-3.83 14.11-3.02 22.84 3.19c0.38 0.27 0.47 0.8 0.2 1.19c-0.17 0.23-0.43 0.36-0.69 0.36z" />
					</g>
					<g id="&lt;Group&gt;">
						<path id="&lt;Path&gt;" class="s20" d="m778.5 377.23c-0.09 0-0.19-0.02-0.28-0.05c-0.44-0.15-0.68-0.64-0.53-1.08c5.31-15.39 5.36-27.8 0.15-36.88c-5.81-10.13-16.06-12.27-16.49-12.36c-0.46-0.09-0.76-0.54-0.67-1c0.09-0.46 0.55-0.76 1-0.67c0.46 0.09 11.44 2.39 17.63 13.18c5.47 9.52 5.46 22.4-0.01 38.28c-0.12 0.35-0.45 0.57-0.8 0.57z" />
					</g>
					<g id="&lt;Group&gt;">
						<path id="&lt;Path&gt;" class="s20" d="m802.76 376.25c-0.25 0-0.5-0.11-0.67-0.32c-10.19-12.85-6.9-24.01-4.26-32.97c1.78-6.02 3.31-11.23 0.34-15.46c-0.27-0.38-0.18-0.91 0.21-1.18c0.38-0.27 0.91-0.18 1.18 0.21c3.44 4.9 1.8 10.47-0.1 16.91c-2.66 9.03-5.68 19.27 3.96 31.43c0.29 0.37 0.23 0.9-0.14 1.19c-0.16 0.12-0.34 0.18-0.53 0.18z" />
					</g>
					<g id="&lt;Group&gt;">
						<path id="&lt;Path&gt;" class="s20" d="m787.32 396.29c-0.08 0-0.16-0.01-0.24-0.03l-13.09-3.79c-13.56-3.93-12.67-9.9-11.63-16.82c1-6.64 2.24-14.91-8.43-25.13c-0.34-0.33-0.35-0.86-0.03-1.2c0.33-0.34 0.86-0.35 1.2-0.03c11.3 10.83 9.99 19.58 8.94 26.61c-1.03 6.88-1.71 11.43 10.42 14.94l13.09 3.79c0.45 0.13 0.71 0.6 0.58 1.05c-0.11 0.37-0.45 0.61-0.82 0.61z" />
					</g>
					<g id="&lt;Group&gt;">
						<path id="&lt;Path&gt;" class="s20" d="m802.58 406.97c-1.59 0-3.3-0.16-5.03-0.38c-0.46-0.06-0.79-0.48-0.74-0.95c0.06-0.47 0.49-0.79 0.95-0.74c3.99 0.5 8.77 0.8 10.23-1.37c1.04-1.54 0.42-4.48-1.81-8.51c-0.23-0.41-0.08-0.93 0.33-1.15c0.41-0.23 0.93-0.08 1.15 0.33c2.63 4.75 3.19 8.12 1.73 10.28c-1.29 1.9-3.82 2.48-6.82 2.48z" />
					</g>
					<g id="&lt;Group&gt;">
						<path id="&lt;Path&gt;" class="s20" d="m795.52 389.72c-0.45 0-0.83-0.36-0.85-0.81c-0.02-0.47 0.35-0.87 0.81-0.88c4.43-0.19 8.64-2.83 10.74-6.74c0.22-0.41 0.74-0.57 1.15-0.35c0.41 0.22 0.57 0.74 0.35 1.15c-2.37 4.43-7.15 7.42-12.17 7.63c-0.01 0-0.02 0-0.04 0z" />
					</g>
				</g>
				<g id="&lt;Group&gt;">
					<path id="&lt;Path&gt;" class="s16" d="m684.15 441.48c22.36-7.48 37.93-12.57 46.7-15.26c23.27 15.64 41.51 13.2 54.71-7.34c34.75 11.67 57.4 51.48 67.93 119.42c6.72 43.37-5.22 115.62 24.19 155.3c24.48 33.02-57 44.5-138.93 23.74c-5.04-1.28-9.03-5.1-10.55-10.07c-11.62-38.24-60.14-204.56-44.06-265.79z" />
					<path id="&lt;Compound Path&gt;" fill-rule="evenodd" class="s15" d="m818.14 728.49c-24.05 0-52.16-3.37-79.6-10.33c-5.29-1.34-9.56-5.42-11.15-10.65c-10.21-33.6-60.33-204.33-44.06-266.25l0.12-0.44l0.44-0.15c0.34-0.11 33.71-11.27 46.72-15.27l0.39-0.12l0.34 0.23c0.17 0.11 16.87 11.16 33.29 7.75c8.18-1.69 14.99-6.69 20.23-14.84l0.36-0.56l0.63 0.21c0.53 0.18 52.8 18.85 68.5 120.1c2.12 13.66 2.39 30.12 2.68 47.55c0.62 37.67 1.33 80.36 21.35 107.37c5.24 7.07 6.02 13.45 2.32 18.97c-7.24 10.81-31.49 16.43-62.53 16.43zm-89.13-21.47c1.42 4.66 5.23 8.3 9.94 9.5c62.24 15.77 127.81 13.25 140.31-5.4c3.26-4.86 2.49-10.59-2.27-17.01c-20.35-27.45-21.06-70.43-21.69-108.35c-0.29-17.37-0.56-33.78-2.66-47.32c-14.6-94.21-60.9-116.1-66.75-118.51c-5.45 8.21-12.49 13.26-20.95 15.01c-16.01 3.31-31.66-6.14-34.23-7.79c-12.42 3.83-41.92 13.68-45.87 14.99c-15.8 61.85 34 231.44 44.16 264.88z" />
				</g>
				<g id="&lt;Group&gt;">
					<g id="&lt;Group&gt;">
						<path id="&lt;Path&gt;" class="s15" d="m840.42 727.5c-0.24 0-0.47-0.1-0.64-0.29c-29.26-33.19-28.35-69.29-27.3-111.08c1.26-49.87 2.82-111.94-48.1-190.67c-0.25-0.39-0.14-0.92 0.25-1.18c0.39-0.25 0.92-0.14 1.18 0.25c51.21 79.16 49.63 141.52 48.37 191.63c-1.05 41.44-1.95 77.23 26.88 109.92c0.31 0.35 0.28 0.89-0.07 1.2c-0.16 0.14-0.36 0.21-0.56 0.21z" />
					</g>
					<g id="&lt;Group&gt;">
						<path id="&lt;Path&gt;" class="s15" d="m858.04 724.46c-0.26 0-0.51-0.12-0.68-0.34c-19.61-25.85-23.05-44.95-25.32-57.59c-2.36-13.17-3.44-19.18-19.11-20.43c-0.47-0.04-0.82-0.45-0.78-0.91c0.04-0.47 0.45-0.81 0.91-0.78c16.97 1.36 18.27 8.62 20.64 21.82c2.24 12.48 5.63 31.34 25 56.87c0.28 0.38 0.21 0.91-0.16 1.19c-0.15 0.12-0.34 0.17-0.51 0.17z" />
					</g>
				</g>
				<g id="&lt;Group&gt;">
					<path id="&lt;Path&gt;" class="s21" d="m780.2 404.68c2.01-1.24 4.57-0.9 5.59 1.24c5.43 11.41 9.67 19.86-8.09 26.97c-35.3 14.12-29.82 8.95-46.85-6.67c5.14-1.64 15.04-0.45 49.35-21.53z" />
					<path id="&lt;Compound Path&gt;" fill-rule="evenodd" class="s22" d="m750.86 441.95c-5.48 0-8.5-2.77-13.39-7.94c-1.98-2.09-4.22-4.45-7.19-7.18l-1.08-0.99l1.4-0.44c0.95-0.3 2-0.5 3.34-0.76c6.17-1.18 17.65-3.38 45.82-20.69c1.32-0.81 2.85-1.05 4.19-0.66c1.15 0.34 2.08 1.14 2.6 2.25l0.17 0.35c3.21 6.75 5.98 12.57 3.92 17.85c-1.54 3.94-5.55 7.09-12.62 9.92c-14.09 5.64-21.8 8.28-27.15 8.28zm-18.3-15.31c2.46 2.32 4.4 4.37 6.14 6.2c8.97 9.46 10.13 10.67 38.68-0.75c6.51-2.61 10.33-5.54 11.67-8.96c1.8-4.6-0.83-10.11-3.87-16.5l-0.17-0.35c-0.32-0.68-0.86-1.15-1.55-1.35c-0.87-0.26-1.92-0.08-2.82 0.47c-28.44 17.48-40.12 19.71-46.39 20.91c-0.62 0.12-1.18 0.23-1.68 0.33z" />
				</g>
				<g id="&lt;Group&gt;">
					<path id="&lt;Path&gt;" class="s23" d="m473.72 540.2c4.53-0.56 7.55-1.7 12.02 0.68c-26.33 12.76-44.19 3.85-33.94-0.54c3.54-1.51 13.5 0.89 21.92-0.15z" />
					<path id="&lt;Path&gt;" class="s24" d="m426.23 570.25c-1.26 0.72-3.27-0.06-3.77-1.42c-1.61-4.4 22.4-15.03 46.24-15.03c-12.94 5.95-30.61 9.64-42.48 16.44z" />
					<path id="&lt;Path&gt;" class="s13" d="m500.38 534.63l32.34 8.2l-12.9 29.11l-22.15-17.28c-4.29-3.27-0.32-2.63-69.96 7.88c-4.23 0.64-5.54-2.32-1.86-4.08c6.54-3.12 16.96-6.53 24.13-5.5c-4.79-0.94-17.68 1.77-17.41-1.89c0.29-3.99 21.38-3.5 28.12-5.24c7.95-2.06 27.97-16.57 39.69-11.18z" />
				</g>
				<g id="&lt;Group&gt;">
					<path id="&lt;Path&gt;" class="s16" d="m612.97 560.81c12.4-23.14 62.8-116.75 71.17-119.33c30.03-9.25 27.96 74.44 18.72 90.76c-13.44 23.74-44.55 93.07-69.94 98.62c-21.79 4.76-134.82-59.36-132.79-68.59c1.73-7.85 9.81-31.65 15.17-29.76l89.44 31.48c3.16 1.11 6.64-0.24 8.22-3.18z" />
					<path id="&lt;Compound Path&gt;" fill-rule="evenodd" class="s15" d="m630.27 631.96c-25.12 0-112.51-49.17-128.09-64.79c-2.23-2.23-3.14-3.85-2.87-5.08c1.56-7.04 8.14-26.96 13.74-30.07c0.88-0.49 1.74-0.59 2.54-0.31l89.44 31.48c2.78 0.98 5.8-0.19 7.19-2.78c23.4-43.68 63.83-117.32 71.67-119.74c6.16-1.89 11.41-0.22 15.6 4.99c14.26 17.74 11.79 73.43 4.11 87c-2.42 4.27-5.4 10.01-8.86 16.65c-16.11 30.96-40.44 77.75-61.64 82.38c-0.83 0.18-1.78 0.27-2.83 0.27zm-115.58-98.71c-0.25 0-0.52 0.08-0.82 0.25c-4.82 2.68-11.31 21.75-12.9 28.95c-0.02 0.09-0.13 0.97 2.41 3.51c15.71 15.75 109.94 68.32 129.36 64.06c20.42-4.46 45.51-52.69 60.49-81.5c3.46-6.66 6.45-12.4 8.89-16.71c7.32-12.94 9.64-68.19-3.95-85.1c-3.71-4.61-8.34-6.1-13.77-4.43c-5.23 1.61-31.65 46.06-70.67 118.92c-1.79 3.34-5.68 4.84-9.26 3.58l-89.44-31.48c-0.11-0.04-0.22-0.06-0.34-0.06z" />
				</g>
				<g id="&lt;Group&gt;">
					<path id="&lt;Path&gt;" class="s8" d="m843.3 1064.4c10.71 1.16 18.03 19.37 22.08 33.46c2.09 7.29-2.55 14.73-10 16.14c-17 3.21-38.11 1.71-37.24-13.55c1.29-22.42-2.21-39.01 25.16-36.05z" />
					<path id="&lt;Compound Path&gt;" fill-rule="evenodd" class="s25" d="m841.25 1116.15c-7.84 0-15.32-1.43-19.76-5.33c-2.99-2.63-4.38-6.13-4.13-10.42c0.16-2.85 0.25-5.62 0.33-8.25c0.35-11.19 0.62-20.03 6.28-24.95c3.96-3.44 10.13-4.57 19.4-3.57c11.06 1.2 18.47 19.16 22.74 34.02c1.07 3.72 0.54 7.58-1.48 10.86c-2.01 3.26-5.33 5.54-9.12 6.26c-4.48 0.84-9.44 1.39-14.26 1.39zm-3.89-51.33c-5.63 0-9.63 1.16-12.37 3.54c-5.15 4.48-5.41 13.01-5.75 23.83c-0.08 2.65-0.17 5.43-0.34 8.3c-0.22 3.79 1 6.87 3.61 9.17c6.74 5.92 21.32 5.73 32.71 3.58c3.36-0.63 6.31-2.66 8.09-5.55c1.79-2.91 2.26-6.33 1.31-9.62c-3.38-11.79-10.67-31.74-21.41-32.9c-2.12-0.23-4.06-0.35-5.84-0.35z" />
				</g>
				<g id="&lt;Group&gt;">
					<path id="&lt;Path&gt;" class="s8" d="m717.84 1100.47c0.86 15.27-20.25 16.75-37.25 13.52c-7.45-1.42-12.08-8.86-9.98-16.15c4.06-14.09 11.4-32.29 22.11-33.44c27.38-2.94 23.86 13.65 25.12 36.07z" />
					<path id="&lt;Compound Path&gt;" fill-rule="evenodd" class="s25" d="m694.77 1116.15c-4.85 0-9.83-0.55-14.33-1.4c-3.79-0.72-7.11-3-9.11-6.26c-2.02-3.29-2.54-7.14-1.47-10.86c4.28-14.85 11.71-32.81 22.77-34c9.28-1 15.45 0.14 19.4 3.59c5.65 4.93 5.92 13.76 6.26 24.95c0.08 2.64 0.16 5.4 0.32 8.26c0.24 4.29-1.15 7.79-4.14 10.42c-4.43 3.88-11.88 5.31-19.7 5.31zm3.83-51.32c-1.77 0-3.7 0.11-5.8 0.34c-10.75 1.16-18.05 21.1-21.45 32.88c-0.95 3.29-0.49 6.71 1.3 9.62c1.78 2.89 4.72 4.92 8.08 5.55c11.39 2.16 25.96 2.37 32.71-3.55c2.62-2.29 3.83-5.38 3.62-9.17c-0.16-2.87-0.25-5.65-0.33-8.3c-0.33-10.81-0.58-19.35-5.73-23.83c-2.75-2.39-6.76-3.56-12.41-3.56z" />
				</g>
				<g id="&lt;Group&gt;">
					<path id="&lt;Path&gt;" class="s21" d="m715.01 648.85l-1.63-7.78c-0.79-3.78 43.25-11.1 43.67-8.95l1.99 10.21c0.74 3.8-43.61 8.53-44.03 6.52z" />
					<path id="&lt;Compound Path&gt;" fill-rule="evenodd" class="s22" d="m718.53 650.19c-4.11 0-4.24-0.63-4.35-1.16l-1.63-7.78c-0.08-0.39-0.03-0.98 0.67-1.6c4.25-3.76 39.66-9.97 43.82-8.56c0.64 0.22 0.8 0.64 0.85 0.87l1.99 10.21c0.28 1.44-1.25 2.74-9.63 4.43c-5.93 1.2-14.48 2.37-22.32 3.05c-4.41 0.39-7.38 0.54-9.4 0.54zm-2.76-1.84c4.66 1.49 40.36-3.52 42.41-5.99l-1.89-9.73c-4.75-1.31-40.19 5.72-42.05 8.39l1.53 7.33z" />
				</g>
			</g>
		</g>
	</g>
</svg>